PathFileType	4	(X/Y/Z)	marker_experimental.trc																																																																																																																
DataRate	CameraRate	NumFrames	NumMarkers	Units	OrigDataRate	OrigDataStartFrame	OrigNumFrames																																																																																																												
200	200	4	38	mm	200	76	600																																																																																																												
Frame#	Time	C7			T10			CLAV			STRN			RBAK			LASI			RASI			SACR			LT1			LT2			LT3			LS1			LS2			LS3			LHEE			LTOE			RT1			RT2			RT3			RS1			RS2			RS3			RHEE			RTOE			LKNE			LKNM			LANK			LANM			RKNM			RKNE			RANM			RANK			LAJC			LKJC			RAJC			RKJC			RHJC			LHJC		
		X1	Y1	Z1	X2	Y2	Z2	X3	Y3	Z3	X4	Y4	Z4	X5	Y5	Z5	X6	Y6	Z6	X7	Y7	Z7	X8	Y8	Z8	X9	Y9	Z9	X10	Y10	Z10	X11	Y11	Z11	X12	Y12	Z12	X13	Y13	Z13	X14	Y14	Z14	X15	Y15	Z15	X16	Y16	Z16	X17	Y17	Z17	X18	Y18	Z18	X19	Y19	Z19	X20	Y20	Z20	X21	Y21	Z21	X22	Y22	Z22	X23	Y23	Z23	X24	Y24	Z24	X25	Y25	Z25	X26	Y26	Z26	X27	Y27	Z27	X28	Y28	Z28	X29	Y29	Z29	X30	Y30	Z30	X31	Y31	Z31	X32	Y32	Z32	X33	Y33	Z33	X34	Y34	Z34	X35	Y35	Z35	X36	Y36	Z36	X37	Y37	Z37	X38	Y38	Z38
																																																																																																																			
76	0.375	-406.223663	995.175415	793.785217	-400.273376	821.335938	758.299194	-409.489441	951.077454	909.46521	-407.606781	820.475098	949.818665	-493.660889	939.39679	763.984924	-297.611725	654.512024	891.940857	-512.387878	650.890808	889.89093	-403.233154	699.440125	740.447388	-234.426498	486.937469	879.571838	-228.865128	398.368805	836.781006	-239.263016	413.004395	979.477417	-223.182846	238.119354	861.556885	-210.346985	205.177917	743.901917	-239.798355	142.11058	869.619263	-282.43869	58.507866	713.068726	-275.773804	49.003536	852.913635	-557.49939	488.241333	861.276184	-540.250122	401.73642	822.876221	-563.940369	423.317596	960.505554	-552.177185	252.09314	893.742432	-571.963867	218.682632	776.705383	-538.137634	157.183701	901.506165	-495.288696	56.908855	733.122925	-492.959686	49.382805	875.672424	-236.256119	331.693451	900.102051	-331.330109	306.84787	931.267883	-252.266525	43.771744	754.996094	-319.843018	40.214012	760.701965	-436.141083	321.067871	936.076538	-541.180054	324.870697	912.345459	-455.997559	56.80143	782.864441	-528.148376	43.951817	780.135803	-286.054772	41.992878	757.849029	-283.793114	319.27066	915.684967	-492.072968	50.376624	781.500122	-488.660569	322.969284	924.210998	-481.551995	593.586378	822.268091	-325.202473	596.222497	823.760366
77	0.38	-406.212402	995.163696	793.797241	-400.259369	821.321716	758.316956	-409.474854	951.043152	909.478821	-407.601196	820.454102	949.823608	-493.642578	939.376465	763.992981	-297.598602	654.491028	891.980591	-512.382568	650.865479	889.892395	-403.2005	699.425415	740.467651	-234.411209	486.927856	879.591064	-228.854889	398.334137	836.840393	-239.259323	413.003235	979.510559	-223.163223	238.11116	861.569885	-210.328278	205.176666	743.924011	-239.77121	142.110535	869.639282	-282.43103	58.521408	713.068237	-275.767792	49.003658	852.911621	-557.478271	488.221619	861.305359	-540.24353	401.725952	822.89801	-563.923706	423.316864	960.521912	-552.162048	252.089066	893.747986	-571.954346	218.679947	776.71405	-538.11908	157.173965	901.521423	-495.271606	56.90704	733.13916	-492.951721	49.383312	875.675659	-236.235611	331.674408	900.144409	-331.32074	306.849548	931.294556	-252.256409	43.771641	755.010864	-319.834869	40.223213	760.696472	-436.123596	321.074371	936.112793	-541.170044	324.85495	912.368591	-456.000336	56.753872	782.889832	-528.142212	43.952885	780.134888	-286.045639	41.997427	757.853668	-283.778175	319.261978	915.719482	-492.071274	50.353379	781.51236	-488.64682	322.96466	924.240692	-481.532119	593.562932	822.270716	-325.17747	596.202195	823.790844
78	0.385	-406.199585	995.152405	793.809814	-400.245239	821.308777	758.333984	-409.464386	951.013245	909.488831	-407.596313	820.432739	949.829163	-493.622223	939.356873	764.002197	-297.588684	654.469116	892.017029	-512.386169	650.83844	889.896912	-403.168182	699.411987	740.487854	-234.393295	486.927856	879.608643	-228.841736	398.309875	836.88623	-239.26123	412.998566	979.539856	-223.142929	238.103439	861.586426	-210.309723	205.173965	743.945557	-239.745041	142.110107	869.660156	-282.417816	58.541286	713.064331	-275.763763	49.003086	852.908813	-557.460022	488.205963	861.327576	-540.235229	401.717407	822.915161	-563.912109	423.316925	960.534302	-552.146484	252.089371	893.754456	-571.946716	218.677841	776.722107	-538.105896	157.159378	901.524353	-495.249115	56.901733	733.157532	-492.943359	49.385876	875.678833	-236.215271	331.654419	900.196045	-331.311676	306.853546	931.318542	-252.248215	43.770435	755.023193	-319.826965	40.232658	760.691589	-436.104767	321.081146	936.145996	-541.161438	324.844452	912.387878	-455.993927	56.74826	782.890503	-528.141724	43.956394	780.134705	-286.03759	42.001547	757.857391	-283.763473	319.253983	915.757294	-492.067825	50.352327	781.512604	-488.633102	322.962799	924.266937	-481.521997	593.53732	822.273956	-325.158453	596.180299	823.817312
79	0.39	-406.184875	995.141724	793.822815	-400.230652	821.297302	758.350159	-409.459625	950.990967	909.494507	-407.590179	820.41272	949.834839	-493.599396	939.338623	764.012634	-297.582855	654.44696	892.050842	-512.395142	650.812317	889.901428	-403.136414	699.399658	740.508423	-234.374359	486.93631	879.627136	-228.825836	398.295898	836.918152	-239.268829	412.991119	979.566956	-223.123825	238.09552	861.605408	-210.29213	205.170502	743.966614	-239.726456	142.105804	869.678589	-282.398743	58.564713	713.058228	-275.761871	49.001396	852.905884	-557.445923	488.197815	861.341858	-540.225037	401.711151	822.927795	-563.905518	423.314972	960.544434	-552.132629	252.093872	893.763428	-571.941589	218.679459	776.729919	-538.09729	157.149017	901.520508	-495.224518	56.895432	733.174988	-492.93576	49.390343	875.681396	-236.202271	331.62677	900.260193	-331.304108	306.856232	931.338684	-252.241379	43.769012	755.032593	-319.819305	40.242161	760.687439	-436.087158	321.084991	936.169922	-541.15448	324.839172	912.403259	-455.977814	56.78384	782.868896	-528.146973	43.962807	780.135925	-286.030342	42.005586	757.860016	-283.753189	319.241501	915.799438	-492.062393	50.373323	781.50241	-488.620819	322.962082	924.286591	-481.51818	593.512496	822.276597	-325.14489	596.158346	823.84127
